<?xml version="1.0" encoding="UTF-8" standalone="no"?>
<!-- Uploaded to: SVG Repo, www.svgrepo.com, Generator: SVG Repo Mixer Tools -->

<svg
   width="466.66583"
   height="466.66583"
   viewBox="0 0 13.999975 13.999975"
   fill="none"
   version="1.1"
   id="svg1"
   sodipodi:docname="close.svg"
   inkscape:version="1.4.2 (ebf0e94, 2025-05-08)"
   xmlns:inkscape="http://www.inkscape.org/namespaces/inkscape"
   xmlns:sodipodi="http://sodipodi.sourceforge.net/DTD/sodipodi-0.dtd"
   xmlns="http://www.w3.org/2000/svg"
   xmlns:svg="http://www.w3.org/2000/svg">
  <defs
     id="defs1" />
  <sodipodi:namedview
     id="namedview1"
     pagecolor="#ffffff"
     bordercolor="#000000"
     borderopacity="0.25"
     inkscape:showpageshadow="2"
     inkscape:pageopacity="0.0"
     inkscape:pagecheckerboard="0"
     inkscape:deskcolor="#d1d1d1"
     inkscape:zoom="0.5025"
     inkscape:cx="232.83582"
     inkscape:cy="232.83582"
     inkscape:window-width="1074"
     inkscape:window-height="448"
     inkscape:window-x="3440"
     inkscape:window-y="947"
     inkscape:window-maximized="1"
     inkscape:current-layer="svg1" />
  <path
     fill-rule="evenodd"
     clip-rule="evenodd"
     d="m 0.29289,0.29289 c 0.39053,-0.39052 1.02369,-0.39052 1.41422,0 L 7,5.5858 12.2929,0.29289 c 0.3905,-0.39052 1.0237,-0.39052 1.4142,0 0.3905,0.39053 0.3905,1.02369 0,1.41422 L 8.4142,7 l 5.2929,5.2929 c 0.3905,0.3905 0.3905,1.0237 0,1.4142 -0.3905,0.3905 -1.0237,0.3905 -1.4142,0 L 7,8.4142 1.70711,13.7071 c -0.39053,0.3905 -1.02369,0.3905 -1.41422,0 -0.39052,-0.3905 -0.39052,-1.0237 0,-1.4142 L 5.5858,7 0.29289,1.70711 c -0.39052,-0.39053 -0.39052,-1.02369 0,-1.41422 z"
     fill="#0f1729"
     id="path1"
     style="fill:#ffffff;fill-opacity:1" />
</svg>
