<?xml version="1.0" encoding="UTF-8" standalone="no"?>
<svg
   fill="#000000"
   width="800px"
   height="800px"
   viewBox="0 0 32 32"
   version="1.1"
   id="svg4"
   sodipodi:docname="deposit.svg"
   inkscape:version="1.4.2 (ebf0e94, 2025-05-08)"
   xmlns:inkscape="http://www.inkscape.org/namespaces/inkscape"
   xmlns:sodipodi="http://sodipodi.sourceforge.net/DTD/sodipodi-0.dtd"
   xmlns="http://www.w3.org/2000/svg"
   xmlns:svg="http://www.w3.org/2000/svg">
  <defs
     id="defs4" />
  <sodipodi:namedview
     id="namedview4"
     pagecolor="#ffffff"
     bordercolor="#000000"
     borderopacity="0.25"
     inkscape:showpageshadow="2"
     inkscape:pageopacity="0.0"
     inkscape:pagecheckerboard="0"
     inkscape:deskcolor="#d1d1d1"
     inkscape:zoom="0.94310367"
     inkscape:cx="483.50994"
     inkscape:cy="392.85183"
     inkscape:window-width="3434"
     inkscape:window-height="1278"
     inkscape:window-x="0"
     inkscape:window-y="372"
     inkscape:window-maximized="1"
     inkscape:current-layer="svg4" />
  <g
     data-name="11. Phone"
     id="_11._Phone"
     style="fill:#ffffff;fill-opacity:1">
    <path
       d="M14,6a1,1,0,0,0,0-2H8A1,1,0,0,0,8,6Z"
       id="path1"
       style="fill:#ffffff;fill-opacity:1" />
    <path
       d="M21,8.84v-4A4.8,4.8,0,0,0,16.21,0H5.79A4.8,4.8,0,0,0,1,4.79V27.21A4.8,4.8,0,0,0,5.79,32H16.21A4.8,4.8,0,0,0,21,27.21v-.05A10,10,0,0,0,21,8.84ZM16.21,30H5.79A2.79,2.79,0,0,1,3,27.21V4.79A2.79,2.79,0,0,1,5.79,2H16.21A2.79,2.79,0,0,1,19,4.79V8.2A10.2,10.2,0,0,0,17,8a9.92,9.92,0,0,0-7,2.89V10a1,1,0,0,0-2,0V26a1,1,0,0,0,2,0v-.89A9.92,9.92,0,0,0,17,28a10.19,10.19,0,0,0,1.93-.19A2.79,2.79,0,0,1,16.21,30ZM17,26a8,8,0,0,1-7-4.14V14.14A8,8,0,1,1,17,26Z"
       id="path2"
       style="fill:#ffffff;fill-opacity:1" />
    <path
       d="M17,15h2a1,1,0,0,0,0-2H18a1,1,0,0,0-2,0v.18A3,3,0,0,0,17,19a1,1,0,0,1,0,2H15a1,1,0,0,0,0,2h1a1,1,0,0,0,2,0v-.18A3,3,0,0,0,17,17a1,1,0,0,1,0-2Z"
       id="path3"
       style="fill:#ffffff;fill-opacity:1" />
    <path
       d="M30,5H27.41l.3-.29a1,1,0,1,0-1.42-1.42l-2,2a1,1,0,0,0,0,1.42l2,2a1,1,0,0,0,1.42,0,1,1,0,0,0,0-1.42L27.41,7H30a1,1,0,0,0,0-2Z"
       id="path4"
       style="fill:#ffffff;fill-opacity:1" />
  </g>
</svg>
