<?xml version="1.0" encoding="UTF-8" standalone="no"?>
<svg
   id="Layer_1"
   data-name="Layer 1"
   viewBox="0 0 122.88 119.49"
   version="1.1"
   sodipodi:docname="pay.svg"
   inkscape:version="1.4.2 (ebf0e94, 2025-05-08)"
   xmlns:inkscape="http://www.inkscape.org/namespaces/inkscape"
   xmlns:sodipodi="http://sodipodi.sourceforge.net/DTD/sodipodi-0.dtd"
   xmlns="http://www.w3.org/2000/svg"
   xmlns:svg="http://www.w3.org/2000/svg">
  <sodipodi:namedview
     id="namedview1"
     pagecolor="#ffffff"
     bordercolor="#000000"
     borderopacity="0.25"
     inkscape:showpageshadow="2"
     inkscape:pageopacity="0.0"
     inkscape:pagecheckerboard="0"
     inkscape:deskcolor="#d1d1d1"
     inkscape:zoom="8.9296177"
     inkscape:cx="61.480796"
     inkscape:cy="59.744999"
     inkscape:window-width="3434"
     inkscape:window-height="1278"
     inkscape:window-x="0"
     inkscape:window-y="372"
     inkscape:window-maximized="1"
     inkscape:current-layer="Layer_1" />
  <defs
     id="defs1">
    <style
       id="style1">.cls-1{fill-rule:evenodd;}</style>
  </defs>
  <title
     id="title1">pay-money</title>
  <path
     class="cls-1"
     d="M61.88,42a8,8,0,1,1-7.26,8.65A8,8,0,0,1,61.88,42ZM1,5.44H11.51a1,1,0,0,1,1,1V31.9a1,1,0,0,1-1,1H1a1,1,0,0,1-1-1V6.47a1,1,0,0,1,1-1ZM15.17,10a2,2,0,0,1,.33-1.24c.67-.91,2.31-.64,3.35-.64a15.15,15.15,0,0,0,3.22-.25,37.57,37.57,0,0,0,4.6-1.53c5.69-2,10.54-3.3,16.47-5.9A4.57,4.57,0,0,1,47,.42,100.69,100.69,0,0,1,63.06,7.94a5.69,5.69,0,0,1,2.39,2.37c3.29,4.78,6.1,9.62,8.81,14.47.91,1.7,1.28,3.32.66,4.33-2.54,4.17-7.11-1.76-12-5.71-2.07-1.66-4.89-3.14-7.31-4.82-3.1-1.3-4.57-2.54-7.9-3.24-5.12-.44-5.54,6.91,1.19,7.18,4.57.18,14,4.32,16.62,8.13,2.47,3.56,1.11,7.06-3.91,6.93l-4.2-.78c-6.68-1.26-6.5-1.51-13.46-.22-3.73.7-7.65,1.42-11.51.7-2.34-.44-3.57-1.37-5.67-3A19,19,0,0,0,23.4,32a12.35,12.35,0,0,0-3.06-1.3c-1.6-.38-3.85.16-4.79-1.22a2.59,2.59,0,0,1-.38-1.37V10ZM122.88,83.14H107.3v30.14h15.58V83.14Zm-19,27.61V85.56H92.56c-4.8.86-9.6,3.46-14.41,6.49h-8.8c-4,.24-6.07,4.27-2.19,6.93,3.08,2.26,7.15,2.13,11.33,1.76,2.88-.15,3,3.72,0,3.74-1,.08-2.18-.17-3.17-.17-5.21,0-9.49-1-12.12-5.11l-1.32-3.08L48.79,89.63c-6.55-2.15-11.2,4.7-6.38,9.46a171.58,171.58,0,0,0,29.15,17.16c7.23,4.39,14.45,4.24,21.67,0l10.66-5.5ZM79.13,27,105,66.8,75.32,85.58l-2.54-3.91L94,68.26l.28-.17A4.4,4.4,0,0,0,95.56,62l-1.22-1.88.06,0-5.89-8.94-11.71-18a9.88,9.88,0,0,0,1.5-1.94h0A6.38,6.38,0,0,0,79.13,27Zm-5.41,7.7,19.51,30L63.56,83.5l-27.26-42c.76,0,1.51-.06,2.26-.13,1.29-.12,2.54-.3,3.75-.51L62.15,71a5.2,5.2,0,0,1,7.16,1.61L81,65.15A5.18,5.18,0,0,1,82.64,58L69.45,38c.06-.08.11-.17.16-.25a3.62,3.62,0,0,0,.2-.33,7.21,7.21,0,0,0,.82-3.18,6.59,6.59,0,0,0,3.09.46Z"
     id="path1"
     style="fill:#ffffff;fill-opacity:1" />
</svg>
